<?xml version="1.0" standalone="no"?>
<!DOCTYPE svg PUBLIC "-//W3C//DTD SVG 1.1//EN" "http://www.w3.org/Graphics/SVG/1.1/DTD/svg11.dtd" >
<svg xmlns="http://www.w3.org/2000/svg" xmlns:xlink="http://www.w3.org/1999/xlink" version="1.1">
<metadata></metadata>
<defs>
<font id="gotham_ssmblack_italic" horiz-adv-x="1761" >
<font-face units-per-em="2048" ascent="1638" descent="-410" />
<missing-glyph horiz-adv-x="620" />
<glyph horiz-adv-x="0" />
<glyph horiz-adv-x="682" />
<glyph unicode=" "  horiz-adv-x="620" />
<glyph unicode="&#x09;" horiz-adv-x="620" />
<glyph unicode="&#xa0;" horiz-adv-x="620" />
<glyph unicode="!" horiz-adv-x="708" d="M-2 0l94 358h406l-97 -358h-403zM227 489l109 848l43 154h442l-43 -154l-346 -848h-205z" />
<glyph unicode="&#x22;" horiz-adv-x="1165" d="M166 743l199 748h419l-2 -10l-411 -738h-205zM713 743l198 748h418l-2 -10l-409 -738h-205z" />
<glyph unicode="#" horiz-adv-x="1501" d="M20 295l76 328h215l88 254h-200l75 329h240l100 285h304l-101 -285h279l100 285h303l-100 -285h174l-76 -329h-215l-88 -254h201l-76 -328h-242l-102 -295h-303l104 295h-278l-103 -295h-303l103 295h-175zM604 614h291l94 271h-293z" />
<glyph unicode="$" horiz-adv-x="1409" d="M-25 262l246 248q157 -139 328 -178l82 274q-78 26 -135.5 51.5t-109.5 60t-84 75.5t-50.5 95.5t-18.5 121.5q0 205 177 343t456 138h19l37 123h221l-43 -150q221 -52 368 -186l-227 -264q-111 94 -242 135l-77 -262q95 -32 161.5 -66t120 -81t79.5 -110t26 -145 q0 -142 -81 -252.5t-226 -171.5t-330 -61h-10l-62 -209h-221l67 229q-295 56 -471 242zM625 1055q0 -37 23.5 -61t86.5 -50l70 236h-2q-88 -3 -134 -38t-44 -87zM741 313h2q84 3 131 37t46 92q0 36 -23.5 61.5t-83.5 49.5z" />
<glyph unicode="%" horiz-adv-x="1968" d="M152 0l729 743l731 748h295l-729 -743l-732 -748h-294zM182 1053q0 94 36 183t101 153q122 122 289 122q162 0 256 -95.5t94 -248.5q0 -93 -36 -182t-101 -154q-120 -120 -289 -120q-163 0 -256.5 95t-93.5 247zM422 1063q0 -62 32.5 -99.5t88.5 -37.5q61 0 104 43 q34 35 54 86t20 102q0 63 -33 101t-90 38q-59 0 -104 -45q-33 -33 -52.5 -84t-19.5 -104zM1098 324q0 92 36.5 180.5t102.5 154.5q121 121 289 121q163 0 256.5 -95t93.5 -247q0 -93 -36.5 -182.5t-100.5 -153.5q-122 -122 -291 -122q-161 0 -255.5 96t-94.5 248zM1337 334 q0 -63 33 -101t90 -38t105 45q33 33 52 84t19 104q0 62 -32.5 99.5t-87.5 37.5q-62 0 -105 -43q-34 -35 -54 -86t-20 -102z" />
<glyph unicode="&#x26;" horiz-adv-x="1509" d="M43 385q0 163 112 283.5t314 187.5q-70 131 -70 250q0 172 131 292t342 120q192 0 314.5 -105.5t122.5 -267.5q0 -272 -375 -412l135 -186q79 84 162 207l229 -162q-104 -157 -211 -273l125 -172l-264 -178l-106 152q-221 -144 -457 -144q-231 0 -367.5 110t-136.5 298z M416 416q0 -62 47.5 -101t132.5 -39q105 0 229 74l-207 293q-202 -88 -202 -227zM725 1094q0 -72 51 -156q110 41 160.5 85.5t50.5 106.5q0 47 -32 80t-85 33q-64 0 -104.5 -43.5t-40.5 -105.5z" />
<glyph unicode="'" horiz-adv-x="624" d="M166 743l199 748h423l-2 -10l-411 -738h-209z" />
<glyph unicode="(" horiz-adv-x="985" d="M113 459q0 418 305 723q215 215 563 338l121 -269q-221 -98 -373 -250q-120 -119 -180 -255.5t-60 -276.5q0 -145 66 -275.5t195 -269.5l-226 -229q-411 315 -411 764z" />
<glyph unicode=")" horiz-adv-x="985" d="M-98 -31q219 97 372 250q120 119 180 256t60 277q0 145 -65.5 275t-194.5 269l225 230q412 -316 412 -762q0 -417 -305 -725q-217 -217 -563 -336z" />
<glyph unicode="*" horiz-adv-x="946" d="M213 1118l281 23l-232 164l156 153l162 -231l24 278l205 -55l-117 -254l256 119l58 -209l-283 -25l231 -163l-155 -152l-160 231l-25 -280l-206 55l118 254l-256 -119z" />
<glyph unicode="+" horiz-adv-x="1384" d="M137 578l92 344h377l101 374h356l-98 -374h376l-94 -344h-377l-98 -375h-358l100 375h-377z" />
<glyph unicode="," horiz-adv-x="671" d="M-141 -199q125 12 192 62.5t86 140.5h-157l108 399h404l-91 -344q-56 -208 -177.5 -304t-346.5 -105z" />
<glyph unicode="-" horiz-adv-x="907" d="M86 492l92 346h690l-92 -346h-690z" />
<glyph unicode="." horiz-adv-x="671" d="M-20 0l106 401h406l-109 -401h-403z" />
<glyph unicode="/" horiz-adv-x="1157" d="M-293 -272l1452 1972h342l-1452 -1972h-342z" />
<glyph unicode="0" horiz-adv-x="1568" d="M123 580q0 200 75 389.5t210 324.5q226 226 534 226q180 0 316 -79.5t207 -217t71 -312.5q0 -200 -75 -389.5t-210 -324.5q-226 -226 -534 -226q-271 0 -432.5 170.5t-161.5 438.5zM524 596q0 -133 61.5 -203.5t164.5 -70.5q109 0 206 94q83 83 131 216t48 263 q0 133 -61.5 203.5t-164.5 70.5q-113 0 -207 -94q-82 -82 -130 -215.5t-48 -263.5z" />
<glyph unicode="1" horiz-adv-x="937" d="M195 0l297 1112l-254 -59l-7 321l471 127h285l-403 -1501h-389z" />
<glyph unicode="2" horiz-adv-x="1349" d="M-57 0l82 309l757 500q99 64 141 119t42 112q0 60 -40.5 94.5t-113.5 34.5q-151 0 -342 -184l-233 244q257 284 608 284q239 0 379.5 -116.5t140.5 -304.5q0 -145 -84.5 -264.5t-298.5 -252.5l-383 -249h600l-88 -326h-1167z" />
<glyph unicode="3" horiz-adv-x="1318" d="M-39 258l275 221q63 -83 138.5 -124.5t178.5 -41.5q109 0 182.5 55t73.5 128q0 70 -62 107.5t-184 37.5h-131l-10 211l422 315h-559l88 324h1063l-80 -285l-461 -329q145 -38 226 -129.5t81 -233.5q0 -211 -147 -358q-88 -88 -218.5 -136.5t-287.5 -48.5q-398 0 -588 287 z" />
<glyph unicode="4" horiz-adv-x="1458" d="M31 586l1016 915h411l-241 -905h192l-82 -299h-190l-80 -297h-379l78 297h-684zM479 594h359l116 436z" />
<glyph unicode="5" horiz-adv-x="1323" d="M-31 238l254 233q157 -160 352 -160q120 0 195.5 60.5t75.5 148.5q0 73 -59.5 120.5t-174.5 47.5q-104 0 -209 -59l-200 143l235 719h967l-88 -330h-643l-72 -215q100 27 182 27q207 0 334 -113.5t127 -304.5q0 -225 -160 -385q-197 -197 -524 -197q-174 0 -339 77 t-253 188z" />
<glyph unicode="6" horiz-adv-x="1406" d="M119 530q0 210 76 410.5t217 343.5q234 234 575 234q286 0 477 -164l-202 -279q-136 115 -293 115q-172 0 -291 -119q-86 -86 -131 -217q58 51 149.5 85t190.5 34q185 0 309.5 -109.5t124.5 -296.5q0 -114 -45.5 -219t-126.5 -186q-89 -89 -210 -139t-255 -50 q-127 0 -233.5 37.5t-178.5 108.5q-153 153 -153 411zM489 453q0 -71 50 -121q53 -53 143 -53q107 0 178 71q72 72 72 168q0 79 -53 126.5t-138 47.5q-111 0 -182 -71q-70 -67 -70 -168z" />
<glyph unicode="7" horiz-adv-x="1325" d="M8 0l905 1157h-675l90 334h1132l-82 -299l-915 -1192h-455z" />
<glyph unicode="8" horiz-adv-x="1433" d="M66 397q0 155 97.5 258.5t268.5 147.5q-79 46 -122.5 120t-43.5 162q0 78 38.5 153t109.5 136.5t185.5 99t254.5 37.5q243 0 395 -114.5t152 -288.5q0 -136 -85.5 -232.5t-236.5 -138.5q103 -41 162 -119.5t59 -189.5q0 -123 -77.5 -224.5t-226 -162.5t-339.5 -61 q-162 0 -295.5 50t-214.5 146.5t-81 220.5zM455 440q0 -74 64 -120t161 -46q102 0 171.5 50.5t70.5 132.5q1 73 -63.5 118.5t-162.5 45.5q-102 0 -171 -51.5t-70 -129.5zM618 1044q-1 -69 56 -113t143 -44q90 0 153 49.5t64 122.5q0 69 -56.5 113.5t-146.5 44.5 q-88 0 -150.5 -50t-62.5 -123z" />
<glyph unicode="9" horiz-adv-x="1406" d="M14 158l205 278q152 -133 313 -133q170 0 291 121q81 79 125 201q-59 -52 -149 -86.5t-189 -34.5q-120 0 -216.5 46.5t-156 142t-59.5 225.5q0 119 45.5 225.5t126.5 187.5q89 89 209 139t256 50q123 0 232.5 -38t179.5 -108q155 -155 155 -432q0 -200 -77.5 -395.5 t-219.5 -339.5q-234 -234 -565 -234q-300 0 -506 185zM567 963q0 -81 53.5 -129t139.5 -48q109 0 180 74q70 70 70 174q0 78 -47 125q-53 53 -146 53q-107 0 -176 -69q-74 -74 -74 -180z" />
<glyph unicode=":" horiz-adv-x="679" d="M-16 0l108 401h404l-109 -401h-403zM184 750l107 401h405l-108 -401h-404z" />
<glyph unicode=";" horiz-adv-x="679" d="M-137 -203q123 12 190 62.5t86 140.5h-155l108 401h404l-93 -346q-56 -207 -177 -303.5t-345 -105.5zM184 750l107 401h405l-108 -401h-404z" />
<glyph unicode="&#x3c;" horiz-adv-x="1384" d="M145 569l97 359l1167 428l-102 -377l-768 -246l637 -246l-93 -346z" />
<glyph unicode="=" horiz-adv-x="1384" d="M90 297l90 340h1061l-92 -340h-1059zM240 862l92 340h1061l-93 -340h-1060z" />
<glyph unicode="&#x3e;" horiz-adv-x="1384" d="M63 141l105 379l766 246l-637 246l92 344l940 -428l-98 -359z" />
<glyph unicode="?" horiz-adv-x="1173" d="M162 0l96 358h404l-97 -358h-403zM217 1321q103 93 239 141.5t285 48.5q219 0 350.5 -111.5t131.5 -277.5q0 -185 -135 -309t-404 -166l-63 -158h-248l39 357l18 14q393 35 393 193q0 110 -147 110q-148 0 -293 -116z" />
<glyph unicode="@" horiz-adv-x="2082" d="M115 498q0 204 80.5 392.5t218.5 327.5t332.5 222.5t410.5 83.5q197 0 360.5 -58.5t271.5 -158.5t167 -232.5t59 -281.5q0 -168 -44.5 -299.5t-119 -210t-164.5 -118.5t-188 -40q-112 0 -195 47.5t-124 126.5q-157 -172 -338 -172q-142 0 -238 100t-96 267q0 127 44 241 t116 194t167.5 126.5t196.5 46.5q184 0 275 -154l45 142l297 -82l-162 -510q-25 -82 -25 -121q0 -59 36.5 -92t100.5 -33q55 0 111.5 36t105 102t79 172.5t30.5 234.5q0 131 -53 247t-149 204t-243 139t-323 51q-200 0 -378.5 -76.5t-304 -204.5t-198.5 -300t-73 -359 q0 -219 100 -388t281 -262.5t415 -93.5q226 0 437 96l34 -77q-223 -103 -471 -103q-194 0 -359 61t-280 169.5t-180 262.5t-65 335zM838 551q0 -71 41.5 -113.5t111.5 -42.5q97 0 170.5 84t73.5 201q0 68 -44 111t-112 43q-96 0 -168.5 -83.5t-72.5 -199.5z" />
<glyph unicode="A" horiz-adv-x="1667" d="M-139 0l1036 1501h387l234 -1501h-414l-39 281h-588l-186 -281h-430zM684 596h346l-57 440z" />
<glyph unicode="B" horiz-adv-x="1544" d="M-4 0l399 1491h613q143 0 248.5 -28.5t165.5 -80t88 -114t28 -138.5q0 -142 -88 -240.5t-244 -135.5q104 -39 164 -114.5t60 -184.5q0 -205 -171 -330t-499 -125h-764zM467 324h328q110 0 173.5 44t63.5 119q0 121 -186 121h-301zM623 895h288q115 0 175.5 41t60.5 117 q0 114 -184 114h-269z" />
<glyph unicode="C" horiz-adv-x="1566" d="M125 623q0 173 69 336.5t199 293.5q125 125 294 196t366 71q219 0 373.5 -97t228.5 -268l-340 -192q-52 97 -127.5 146.5t-186.5 49.5q-174 0 -307 -133q-73 -73 -114 -171.5t-41 -205.5q0 -145 87.5 -232t225.5 -87q93 0 169 37.5t157 113.5l264 -241 q-247 -269 -613 -269q-204 0 -363.5 79t-250 228t-90.5 345z" />
<glyph unicode="D" horiz-adv-x="1648" d="M-4 0l399 1491h473q394 0 584 -193q162 -162 162 -436q0 -167 -63 -317.5t-183 -270.5q-274 -274 -780 -274h-592zM485 352h148q135 0 249 40.5t191 117.5q133 133 133 324q0 132 -76 208q-94 97 -303 97h-129z" />
<glyph unicode="E" horiz-adv-x="1443" d="M-4 0l399 1491h1178l-92 -338h-785l-65 -244h706l-84 -317h-708l-68 -254h797l-90 -338h-1188z" />
<glyph unicode="F" horiz-adv-x="1413" d="M-4 0l399 1491h1182l-94 -350h-785l-71 -267h704l-88 -333h-706l-146 -541h-395z" />
<glyph unicode="G" horiz-adv-x="1650" d="M123 627q0 173 67.5 332.5t190.5 283.5q130 130 308 203.5t386 73.5q211 0 371 -72.5t246 -181.5l-271 -256q-155 155 -374 155q-108 0 -203 -39t-164 -108q-71 -71 -111.5 -169.5t-40.5 -207.5q0 -154 98 -239t246 -85q122 0 213 43l62 209h-297l78 299h676l-211 -751 q-255 -146 -553 -146q-109 0 -211 24t-194.5 76.5t-161.5 127.5t-109.5 185.5t-40.5 242.5z" />
<glyph unicode="H" horiz-adv-x="1632" d="M-4 0l399 1491h398l-152 -565h541l151 565h396l-400 -1491h-397l153 573h-538l-156 -573h-395z" />
<glyph unicode="I" horiz-adv-x="716" d="M6 0l402 1491h395l-400 -1491h-397z" />
<glyph unicode="J" horiz-adv-x="1234" d="M-76 233l271 238q58 -77 116 -111t129 -34q99 0 168 69q33 35 58.5 92t56.5 175l223 829h397l-243 -907q-45 -167 -94.5 -268.5t-124.5 -178.5q-167 -162 -455 -162q-156 0 -290 67.5t-212 190.5z" />
<glyph unicode="K" horiz-adv-x="1560" d="M-4 0l399 1491h398l-164 -610l641 610h508l-707 -647l334 -844h-428l-221 594l-271 -242l-94 -352h-395z" />
<glyph unicode="L" horiz-adv-x="1339" d="M-4 0l399 1491h398l-306 -1141h717l-94 -350h-1114z" />
<glyph unicode="M" horiz-adv-x="1857" d="M-4 0l399 1491h400l198 -588l518 588h443l-400 -1491h-395l236 881l-545 -596h-8l-224 592l-235 -877h-387z" />
<glyph unicode="N" horiz-adv-x="1685" d="M-4 0l399 1491h369l397 -854l230 854h391l-400 -1491h-346l-411 883l-238 -883h-391z" />
<glyph unicode="O" d="M129 639q0 173 68.5 335.5t191.5 285.5q122 122 282.5 190t346.5 68q155 0 287.5 -51t223.5 -140t142 -212t51 -263q0 -173 -68.5 -335.5t-191.5 -285.5q-122 -122 -282 -190t-346 -68q-155 0 -287.5 51t-223.5 140t-142.5 212t-51.5 263zM532 670q0 -152 89 -246 t249 -94q167 0 295 125q72 72 113 170.5t41 195.5q0 152 -89 246t-249 94q-169 0 -297 -125q-70 -72 -111 -170.5t-41 -195.5z" />
<glyph unicode="P" horiz-adv-x="1454" d="M-4 0l399 1491h486q179 0 299.5 -37.5t201.5 -118.5q117 -117 117 -305q0 -237 -158 -395q-97 -97 -246.5 -150t-332.5 -53h-254l-117 -432h-395zM592 748h170q179 0 270 88q60 63 60 151q0 68 -43 111q-55 55 -183 55h-166z" />
<glyph unicode="Q" d="M129 639q0 173 68.5 335.5t191.5 285.5q122 122 282.5 190t346.5 68q155 0 287.5 -51t223.5 -140t142 -212t51 -263q0 -169 -64 -325.5t-183 -278.5l116 -152l-291 -192l-96 149q-174 -80 -370 -80q-155 0 -287.5 51t-223.5 140t-142.5 212t-51.5 263zM530 666 q0 -152 88.5 -247t251.5 -95q64 0 123 18l-172 233l291 193l135 -211q72 126 72 260q0 155 -89 249.5t-249 94.5q-169 0 -297 -125q-72 -74 -113 -172t-41 -198z" />
<glyph unicode="R" horiz-adv-x="1556" d="M-4 0l399 1491h559q350 0 504 -154q117 -117 117 -305q0 -220 -141 -358q-110 -114 -316 -170l236 -504h-439l-204 457h-197l-123 -457h-395zM600 772h248q178 0 264 86q53 53 53 131q0 65 -41 103q-52 55 -188 55h-236z" />
<glyph unicode="S" horiz-adv-x="1390" d="M-33 248l262 262q212 -203 451 -203q80 0 130 33t50 88q0 46 -48.5 80.5t-201.5 93.5q-73 28 -127.5 55.5t-105 64t-82 77t-50 95t-18.5 118.5q0 190 138 325q85 85 211 132t276 47q373 0 600 -224l-250 -270q-187 162 -385 162q-80 0 -127 -33.5t-47 -81.5q0 -47 45 -76 t207 -94q91 -35 155 -70.5t118 -84t81 -113t27 -144.5q0 -198 -137 -335q-85 -85 -211.5 -131t-276.5 -46q-216 0 -391 70.5t-293 202.5z" />
<glyph unicode="T" horiz-adv-x="1384" d="M195 1141l94 350h1292l-94 -350h-449l-305 -1141h-397l307 1141h-448z" />
<glyph unicode="U" horiz-adv-x="1640" d="M145 489q0 115 35 240l205 762h399l-213 -793q-20 -78 -20 -143q0 -104 61.5 -163.5t175.5 -59.5q127 0 209 82q83 81 131 252l222 825h399l-238 -885q-81 -294 -231 -444q-189 -189 -541 -189q-281 0 -437.5 136.5t-156.5 379.5z" />
<glyph unicode="V" horiz-adv-x="1587" d="M250 1491h430l86 -959l604 959h445l-1004 -1501h-365z" />
<glyph unicode="W" horiz-adv-x="2369" d="M266 1491h408l31 -893l534 897h340l61 -897l508 893h432l-903 -1501h-356l-70 870l-534 -870h-352z" />
<glyph unicode="X" horiz-adv-x="1531" d="M-139 0l725 778l-312 713h437l168 -432l378 432h484l-692 -743l327 -748h-436l-184 469l-412 -469h-483z" />
<glyph unicode="Y" horiz-adv-x="1449" d="M207 1491h428l153 -569l461 569h475l-829 -954l-145 -537h-396l156 580z" />
<glyph unicode="Z" horiz-adv-x="1474" d="M-59 0l77 289l969 866h-713l93 336h1255l-78 -289l-971 -866h742l-90 -336h-1284z" />
<glyph unicode="[" horiz-adv-x="1015" d="M-39 -276l475 1767h727l-73 -270h-375l-330 -1227h375l-72 -270h-727z" />
<glyph unicode="\" horiz-adv-x="1157" d="M248 1700h313l440 -1972h-313z" />
<glyph unicode="]" horiz-adv-x="1015" d="M-131 -276l74 270h374l330 1227h-375l72 270h727l-475 -1767h-727z" />
<glyph unicode="^" horiz-adv-x="1085" d="M197 1051l428 438h262l188 -438h-250l-110 215l-226 -215h-292z" />
<glyph unicode="_" horiz-adv-x="1298" d="M-238 -340l66 246h1288l-67 -246h-1287z" />
<glyph unicode="`" horiz-adv-x="1085" d="M496 1524l362 121l121 -390h-254z" />
<glyph unicode="a" horiz-adv-x="1288" d="M14 289q0 163 107 270q140 137 397 137q146 0 299 -45l4 13q10 38 10 75q0 125 -200 125q-167 0 -309 -57l-56 285q193 73 445 73q251 0 377 -94t126 -268q0 -83 -24 -168l-168 -635h-381l33 127q-153 -150 -336 -150q-143 0 -233.5 86t-90.5 226zM395 330 q0 -50 33 -80.5t88 -30.5q82 0 152.5 62t95.5 151l10 39q-85 29 -164 29q-114 0 -172 -58q-43 -46 -43 -112z" />
<glyph unicode="b" horiz-adv-x="1454" d="M-27 0l416 1554h387l-141 -526q149 146 326 146q180 0 297.5 -128t117.5 -348q0 -162 -56.5 -302.5t-156.5 -241.5q-86 -86 -191 -132.5t-218 -46.5q-229 0 -351 185l-43 -160h-387zM481 510q0 -95 58 -153t151 -58q109 0 191 82q102 105 102 262q0 96 -56 152.5 t-149 56.5q-108 0 -192 -84q-105 -105 -105 -258z" />
<glyph unicode="c" horiz-adv-x="1216" d="M76 481q0 141 53 267t150 223q96 96 221.5 149.5t265.5 53.5q186 0 308 -83.5t175 -220.5l-301 -165q-35 72 -83 108.5t-126 36.5q-98 0 -178 -80q-51 -51 -80.5 -123.5t-29.5 -148.5q0 -92 53.5 -147.5t134.5 -55.5q62 0 114.5 25.5t110.5 80.5l230 -213 q-94 -105 -208 -160t-272 -55q-237 0 -387.5 138.5t-150.5 369.5z" />
<glyph unicode="d" horiz-adv-x="1454" d="M76 451q0 163 57 304t158 242q180 177 407 177q232 0 353 -183l151 563h387l-418 -1554h-387l33 121q-153 -146 -325 -146q-179 0 -297.5 129t-118.5 347zM469 508q0 -97 56.5 -154t148.5 -57q108 0 192 84q107 104 107 258q0 95 -59 154t-150 59q-107 0 -191 -84 q-48 -47 -76 -115t-28 -145z" />
<glyph unicode="e" horiz-adv-x="1304" d="M76 481q0 137 54.5 268.5t152.5 227.5q197 197 483 197q120 0 214 -38t152 -103.5t87.5 -148.5t29.5 -179q0 -124 -47 -242h-770v-2q6 -90 64 -143q57 -52 159 -52h4q117 0 246 92l178 -219q-195 -166 -462 -166q-252 0 -398.5 137.5t-146.5 370.5zM461 670h430 q10 30 10 63q0 66 -41.5 109t-122.5 43q-110 0 -192 -82q-54 -54 -84 -133z" />
<glyph unicode="f" horiz-adv-x="907" d="M43 0l223 836h-135l86 315h133l8 27q44 176 138 270q124 121 350 121q139 0 252 -35l-76 -281q-77 25 -137 25q-119 0 -148 -111l-6 -22h262l-82 -309h-258l-223 -836h-387z" />
<glyph unicode="g" horiz-adv-x="1443" d="M-84 -186l180 245q93 -59 200 -89.5t208 -30.5q153 0 241 88q63 63 97 188l8 29q-82 -74 -165.5 -109t-186.5 -35q-79 0 -152.5 26.5t-131.5 75.5t-93 126.5t-35 171.5q0 144 54 274t149 225q81 83 185.5 129t219.5 46q230 0 348 -191l45 168h388l-246 -918 q-41 -156 -87 -247.5t-118 -163.5q-163 -166 -502 -166q-166 0 -329.5 43t-276.5 115zM473 567q0 -85 53 -133.5t142 -48.5q114 0 196 82q90 90 90 209q0 84 -54.5 136t-145.5 52q-109 0 -191 -82q-90 -90 -90 -215z" />
<glyph unicode="h" horiz-adv-x="1359" d="M-27 0l418 1554h387l-143 -534q146 154 323 154q156 0 245 -92t89 -251q0 -82 -32 -206l-166 -625h-389l163 608q15 58 15 97q0 60 -34.5 92t-100.5 32q-165 0 -222 -213l-166 -616h-387z" />
<glyph unicode="i" horiz-adv-x="663" d="M-16 0l307 1151h389l-309 -1151h-387zM313 1260l80 294h406l-82 -294h-404z" />
<glyph unicode="j" horiz-adv-x="663" d="M-272 -332l69 264q27 -6 56 -6q61 0 97.5 38t59.5 126l285 1061h387l-297 -1110q-59 -216 -175 -302.5t-310 -86.5q-84 0 -172 16zM315 1260l80 294h404l-78 -294h-406z" />
<glyph unicode="k" horiz-adv-x="1292" d="M-27 0l418 1554h387l-209 -770l402 367h475l-535 -467l232 -684h-420l-131 424l-154 -133l-78 -291h-387z" />
<glyph unicode="l" horiz-adv-x="663" d="M-16 0l417 1554h387l-417 -1554h-387z" />
<glyph unicode="m" horiz-adv-x="2072" d="M-27 0l308 1151h389l-35 -127q154 150 317 150q114 0 191 -53.5t110 -147.5q173 201 416 201q161 0 249.5 -91t88.5 -249q0 -73 -35 -209l-166 -625h-389l164 608q14 54 14 97q0 124 -131 124q-159 0 -215 -213l-166 -616h-389l164 608q14 54 14 97q0 124 -129 124 q-161 0 -217 -213l-166 -616h-387z" />
<glyph unicode="n" horiz-adv-x="1359" d="M-27 0l308 1151h389l-35 -131q146 154 323 154q156 0 245 -92t89 -251q0 -82 -32 -206l-166 -625h-389l163 608q15 58 15 97q0 60 -34.5 92t-100.5 32q-165 0 -222 -213l-166 -616h-387z" />
<glyph unicode="o" horiz-adv-x="1394" d="M80 508q0 130 52.5 252t146.5 215q94 94 216 146.5t259 52.5q257 0 410 -150.5t153 -382.5q0 -130 -52.5 -252t-146.5 -217q-93 -93 -216 -146t-261 -53q-257 0 -409 150.5t-152 384.5zM453 520q0 -103 57 -163t152 -60q100 0 178 78q49 49 76.5 117.5t27.5 134.5 q0 104 -58 163.5t-153 59.5q-100 0 -176 -76q-49 -48 -76.5 -117.5t-27.5 -136.5z" />
<glyph unicode="p" horiz-adv-x="1454" d="M-119 -340l400 1491h389l-35 -123q149 146 326 146q180 0 297.5 -128t117.5 -348q0 -162 -56.5 -302.5t-156.5 -241.5q-86 -86 -191 -132.5t-218 -46.5q-229 0 -351 185l-135 -500h-387zM481 510q0 -95 58 -153t151 -58q109 0 191 82q102 105 102 262q0 96 -56 152.5 t-149 56.5q-108 0 -192 -84q-105 -105 -105 -258z" />
<glyph unicode="q" horiz-adv-x="1454" d="M76 451q0 163 57 304t158 242q180 177 407 177q232 0 353 -183l43 160h387l-400 -1491h-389l125 461q-153 -146 -325 -146q-179 0 -297.5 129t-118.5 347zM469 508q0 -97 56.5 -154t148.5 -57q108 0 192 84q107 104 107 258q0 95 -59 154t-150 59q-107 0 -191 -84 q-48 -47 -76 -115t-28 -145z" />
<glyph unicode="r" horiz-adv-x="931" d="M-27 0l308 1151h389l-64 -233q89 132 194 196q92 57 207 56q16 0 33 -1l-110 -407h-31q-167 0 -276.5 -98t-165.5 -306l-97 -358h-387z" />
<glyph unicode="s" horiz-adv-x="1103" d="M-63 174l198 227q81 -74 183 -113.5t194 -39.5q52 0 80.5 20t28.5 56q0 29 -33 51t-119 57q-61 24 -104.5 45t-88.5 51t-72.5 62.5t-45 77.5t-17.5 98q0 178 133.5 293t360.5 115q146 0 276.5 -46.5t212.5 -115.5l-190 -234q-161 123 -320 123q-52 0 -79 -20t-27 -54 q0 -28 33.5 -50.5t124.5 -59.5q57 -23 97 -42t85.5 -49.5t73.5 -63t46.5 -79t18.5 -100.5q0 -177 -131 -293.5t-362 -116.5q-158 0 -306.5 53t-250.5 148z" />
<glyph unicode="t" horiz-adv-x="929" d="M119 240q0 66 22 149l119 447h-137l86 315h135l80 291h387l-78 -291h268l-86 -315h-268l-102 -387q-13 -59 -13 -68q0 -70 93 -70q64 0 155 31l-86 -322q-115 -43 -237 -43q-167 0 -252.5 69.5t-85.5 193.5z" />
<glyph unicode="u" horiz-adv-x="1359" d="M68 317q0 81 32 209l168 625h387l-163 -608q-15 -58 -15 -97q0 -60 35 -92t102 -32q164 0 220 213l165 616h387l-307 -1151h-387l33 129q-150 -154 -324 -154q-155 0 -244 91.5t-89 250.5z" />
<glyph unicode="v" horiz-adv-x="1331" d="M184 1151h400l43 -690l409 690h414l-766 -1159h-352z" />
<glyph unicode="w" horiz-adv-x="1849" d="M190 1151h379l-4 -604l348 608h322l22 -610l326 606h379l-666 -1159h-335l-27 618l-365 -618h-338z" />
<glyph unicode="x" horiz-adv-x="1269" d="M-117 0l553 598l-241 553h405l107 -289l239 289h440l-536 -584l244 -567h-404l-110 301l-254 -301h-443z" />
<glyph unicode="y" horiz-adv-x="1333" d="M-92 -264l180 282q74 -55 152 -55q59 0 106 47l-147 1141h393l49 -711l395 711h410l-711 -1151q-122 -191 -242.5 -269.5t-285.5 -78.5q-175 0 -299 84z" />
<glyph unicode="z" horiz-adv-x="1208" d="M-68 0l68 258l692 584h-516l82 309h1022l-70 -258l-692 -584h541l-84 -309h-1043z" />
<glyph unicode="{" horiz-adv-x="1075" d="M76 479l69 264h60q160 0 221 64q62 62 88 233q9 59 15.5 89.5t21 81t38.5 90.5t58 75q75 73 200 110t318 38l27 -234q-188 -17 -264 -90q-29 -29 -48 -75t-24.5 -77.5t-15.5 -99.5q-8 -54 -16 -92.5t-29.5 -87t-53.5 -80.5q-85 -85 -252 -102q92 -17 137.5 -70.5 t45.5 -130.5q0 -68 -33 -154q-2 -6 -8.5 -27.5t-9.5 -32t-7 -27.5t-6 -31t-2 -27q0 -66 40.5 -103.5t154.5 -68.5l-111 -215q-242 31 -342 109t-100 206q0 72 37 176q32 98 32 160q0 67 -36.5 98t-147.5 31h-57z" />
<glyph unicode="|" horiz-adv-x="774" d="M12 -272l529 1972h297l-531 -1972h-295z" />
<glyph unicode="}" horiz-adv-x="1075" d="M-96 -68q190 17 264 91q29 29 48 74.5t25 77t15 99.5q8 56 16 93t29 86.5t53 81.5q85 85 252 102q-92 17 -137 70.5t-45 130.5q0 67 33 153q32 107 32 146q0 66 -40 103.5t-154 68.5l111 215q242 -31 342 -109.5t100 -206.5q0 -72 -37 -176q-33 -101 -33 -160 q0 -67 37 -98t148 -31h57l-70 -264h-59q-84 0 -136 -14.5t-85 -48.5q-62 -62 -88 -234q-9 -59 -15.5 -89.5t-21 -81t-38.5 -90.5t-58 -75q-75 -73 -200 -109.5t-319 -37.5z" />
<glyph unicode="~" horiz-adv-x="1097" d="M104 549q60 144 148 222.5t190 78.5q86 0 176 -64q70 -53 111 -53q43 0 76 30.5t67 90.5l185 -86q-60 -143 -149.5 -222t-190.5 -79q-81 0 -176 65q-42 30 -65 42t-46 12q-41 0 -74 -31.5t-67 -91.5z" />
<glyph unicode="&#xa1;" horiz-adv-x="708" d="M-23 0l43 154l347 847h204l-106 -847l-43 -154h-445zM301 1133l96 358h406l-96 -358h-406z" />
<glyph unicode="&#xa2;" horiz-adv-x="1267" d="M131 682q0 140 51 262.5t144 216.5q95 95 222 147t273 52q31 0 45 -2l58 145h231l-76 -194q176 -76 248 -254l-283 -156q-33 77 -92 117l-217 -555h2q123 8 232 114l215 -206q-183 -209 -473 -209q-55 0 -80 2l-70 -174h-231l90 229q-138 62 -213.5 182t-75.5 283z M475 698q0 -113 74 -180l211 539h-2q-100 -12 -174 -86q-52 -52 -80.5 -125t-28.5 -148z" />
<glyph unicode="&#xa3;" horiz-adv-x="1370" d="M-33 0l64 240l176 59l74 266h-162l76 283h161l35 139q61 237 193 369q160 160 428 160q154 0 272.5 -63t183.5 -165l-274 -237q-40 57 -86.5 84.5t-114.5 27.5q-80 0 -137 -57q-50 -47 -80 -152l-28 -106h454l-76 -283h-454l-66 -248h617l-86 -317h-1170z" />
<glyph unicode="&#xa5;" horiz-adv-x="1546" d="M84 199l68 247h391l28 113h-391l68 250h299l-262 682h420l159 -504l418 504h467l-625 -682h295l-65 -250h-391l-31 -113h391l-66 -247h-393l-53 -199h-387l53 199h-393z" />
<glyph unicode="&#xa7;" horiz-adv-x="1355" d="M72 176l207 213q67 -62 159.5 -102.5t179.5 -40.5q57 0 88 17t31 48t-42 53t-167 58q-89 26 -150.5 50.5t-117.5 60t-84.5 83.5t-28.5 109q0 63 25 113.5t67.5 82t85.5 50.5t93 30q-70 70 -70 175q0 146 135.5 245t356.5 99q166 0 308.5 -54.5t227.5 -146.5l-207 -213 q-67 62 -160 102.5t-180 40.5q-118 0 -118 -67q0 -30 42 -51.5t167 -57.5q90 -27 150.5 -51.5t117 -60t84.5 -83t28 -108.5q0 -64 -25 -115t-67 -82t-85.5 -49.5t-92.5 -29.5q70 -75 70 -175q0 -146 -135 -245t-357 -99q-166 0 -308.5 54.5t-227.5 146.5zM465 791 q0 -35 40.5 -60t143.5 -59q92 -30 137 -42t82 -12q47 0 81 24t34 60t-40.5 61.5t-143.5 59.5q-154 51 -219 51q-47 0 -81 -23t-34 -60z" />
<glyph unicode="&#xa8;" horiz-adv-x="1085" d="M319 1255l82 299h344l-81 -299h-345zM784 1255l82 299h344l-82 -299h-344z" />
<glyph unicode="&#xa9;" horiz-adv-x="1787" d="M172 649q0 174 67 338.5t189 286.5q246 246 592 246q153 0 282 -52.5t216.5 -143.5t136.5 -215.5t49 -266.5q0 -174 -67 -338.5t-189 -286.5q-246 -246 -592 -246q-153 0 -282 52.5t-216.5 143.5t-136.5 215.5t-49 266.5zM262 655q0 -125 40.5 -233.5t115.5 -190 t188.5 -128t251.5 -46.5q306 0 520 211q115 115 175.5 261t60.5 309q0 124 -40.5 232.5t-115.5 189.5t-188.5 127.5t-251.5 46.5q-306 0 -520 -211q-115 -115 -175.5 -260.5t-60.5 -307.5zM516 690q0 95 37 185t104 157q148 148 357 148q124 0 212 -53t128 -148l-189 -107 q-57 107 -172 107q-97 0 -172 -72q-80 -83 -80 -202q0 -82 47 -127.5t123 -45.5q93 0 181 82l147 -135q-136 -147 -344 -147q-169 0 -274 97t-105 261z" />
<glyph unicode="&#xaa;" horiz-adv-x="860" d="M109 580l45 157h602l-43 -157h-604zM223 1020q0 104 76 164.5t201 60.5q78 0 164 -28l4 14q6 15 6 35q0 71 -111 71q-84 0 -168 -30l-30 155q106 39 243 39q136 0 205.5 -51.5t69.5 -146.5q0 -43 -13 -93l-94 -348h-211l21 70q-87 -84 -185 -84q-79 0 -128.5 47.5 t-49.5 124.5zM432 1042q0 -26 18.5 -43.5t47.5 -17.5q45 0 85 34t52 83l4 20q-51 19 -92 19q-51 0 -83 -26t-32 -69z" />
<glyph unicode="&#xab;" horiz-adv-x="1368" d="M82 539l22 86l496 454l186 -184l-331 -354l149 -357l-266 -116zM637 549l6 20l537 498l188 -186l-342 -363l141 -338l-266 -119z" />
<glyph unicode="&#xad;" horiz-adv-x="907" d="M86 492l92 346h690l-92 -346h-690z" />
<glyph unicode="&#xae;" horiz-adv-x="804" d="M184 1094q0 176 121 297q120 120 289 120q147 0 238.5 -93t91.5 -232q0 -177 -123 -297q-120 -123 -287 -123q-148 0 -239 94t-91 234zM227 1098q0 -124 78.5 -207.5t212.5 -83.5q146 0 250 104q113 116 113 271q0 125 -79 208t-214 83q-143 0 -248 -105 q-113 -113 -113 -270zM338 950l104 393h156q84 0 124 -33.5t40 -88.5q0 -103 -113 -140l56 -131h-125l-48 115h-45l-30 -115h-119zM510 1157h57q45 0 64 19q12 12 12 30q0 37 -51 37h-57z" />
<glyph unicode="&#xaf;" horiz-adv-x="1085" d="M332 1266l63 239h793l-64 -239h-792z" />
<glyph unicode="&#xb0;" horiz-adv-x="980" d="M207 1087q0 177 125 299q119 119 289 119q162 0 258 -95.5t96 -240.5q0 -177 -125 -299q-120 -120 -291 -120q-160 0 -256 96t-96 241zM414 1098q0 -70 43 -114t112 -44q75 0 131 53q68 71 68 166q0 71 -44 114.5t-114 43.5q-76 0 -129 -53q-67 -70 -67 -166z" />
<glyph unicode="&#xb1;" horiz-adv-x="1384" d="M-6 0l76 293h1093l-80 -293h-1089zM205 801l84 313l385 -2l92 356h330l-97 -356l383 2l-84 -313l-383 2l-92 -354h-331l98 354z" />
<glyph unicode="&#xb2;" horiz-adv-x="860" d="M186 889l47 180l420 283q53 37 77 65.5t24 59.5q0 32 -23.5 50.5t-64.5 18.5q-88 0 -199 -102l-123 143q155 158 354 158q134 0 211.5 -63.5t77.5 -168.5q0 -89 -52.5 -157t-180.5 -146l-213 -133h348l-51 -188h-652z" />
<glyph unicode="&#xb3;" horiz-adv-x="860" d="M201 1012l145 137q94 -94 199 -94q61 0 102 30.5t41 73.5q0 39 -36.5 61.5t-106.5 22.5h-78l-6 119l260 176h-330l49 186h604l-45 -163l-278 -185q91 -15 141.5 -65.5t50.5 -134.5q0 -136 -109.5 -223t-264.5 -87q-221 0 -338 146z" />
<glyph unicode="&#xb4;" horiz-adv-x="1085" d="M440 1255l332 390l350 -121l-379 -269h-303z" />
<glyph unicode="&#xb5;" horiz-adv-x="1499" d="M-117 -340l398 1491h389l-160 -596q-16 -66 -16 -109q0 -64 37.5 -99.5t107.5 -35.5q81 0 133.5 46.5t79.5 146.5l172 647h389l-192 -715q-13 -50 -13 -78q0 -37 24.5 -52t76.5 -15q21 0 67 4l-78 -285q-93 -26 -186 -26q-205 0 -258 153q-98 -147 -260 -147 q-178 0 -242 168h-6q0 -179 -37 -316l-49 -182h-377z" />
<glyph unicode="&#xb6;" horiz-adv-x="1292" d="M166 899q0 237 156 393q199 199 596 199h471l-400 -1491h-395l121 451q-304 15 -441 149q-108 111 -108 299z" />
<glyph unicode="&#xb7;" horiz-adv-x="671" d="M96 465l109 399h405l-108 -399h-406z" />
<glyph unicode="&#xb8;" horiz-adv-x="1085" d="M66 -238l264 269h268l-250 -400z" />
<glyph unicode="&#xb9;" horiz-adv-x="700" d="M358 1640l304 97h163l-225 -848h-225l168 622l-174 -51z" />
<glyph unicode="&#xba;" horiz-adv-x="876" d="M115 580l43 157h600l-43 -157h-600zM229 1139q0 148 111 256q103 108 260 108q140 0 224.5 -82.5t84.5 -212.5q0 -148 -110 -258q-106 -106 -260 -106q-141 0 -225.5 83t-84.5 212zM434 1145q0 -55 31.5 -90t83.5 -35q57 0 100 43q56 59 56 139q0 54 -32 88.5t-83 34.5 q-61 0 -101 -43q-55 -52 -55 -137z" />
<glyph unicode="&#xbb;" horiz-adv-x="1368" d="M-2 262l342 363l-139 338l264 116l264 -485l-6 -21l-537 -497zM580 248l331 354l-147 356l264 117l258 -471l-24 -86l-496 -457z" />
<glyph unicode="&#xbc;" horiz-adv-x="1775" d="M63 0l750 780l657 711h191l-750 -780l-657 -711h-191zM252 1407l301 96h166l-225 -848h-226l166 623l-172 -53zM850 158l27 190l503 500h250l-139 -522h104l-45 -168h-106l-41 -160h-213l43 160h-383zM1063 319h217l80 297h-2z" />
<glyph unicode="&#xbd;" horiz-adv-x="1775" d="M43 0l750 780l657 711h190l-749 -780l-658 -711h-190zM252 1407l301 96h166l-225 -848h-226l166 623l-172 -53zM834 0l47 180l419 283q53 37 77 65.5t24 59.5q0 32 -23.5 50.5t-64.5 18.5q-88 0 -199 -102l-123 143q155 158 355 158q134 0 211 -63t77 -168 q0 -89 -52.5 -157t-180.5 -146l-213 -134h348l-51 -188h-651z" />
<glyph unicode="&#xbe;" horiz-adv-x="1935" d="M94 778l148 137q88 -94 198 -94q61 0 102.5 31t41.5 74q0 39 -37 61.5t-107 22.5h-78l-6 118l260 177h-329l49 186h604l-45 -164l-279 -184q91 -16 142 -67t51 -136q0 -135 -110 -221t-265 -86q-221 0 -340 145zM213 0l750 780l657 711h190l-749 -780l-658 -711h-190z M1010 158l26 190l504 500h250l-139 -522h104l-45 -168h-106l-41 -160h-213l43 160h-383zM1223 319h217l80 297h-2z" />
<glyph unicode="&#xbf;" horiz-adv-x="1173" d="M43 369q0 185 135 309t404 166l63 157h248l-39 -356l-18 -14q-396 -35 -396 -193q0 -52 37.5 -81t112.5 -29q149 0 291 116l168 -274q-103 -93 -239 -141.5t-286 -48.5q-219 0 -350 111.5t-131 277.5zM602 1133l98 358h404l-96 -358h-406z" />
<glyph unicode="&#xc0;" horiz-adv-x="1667" d="M-139 0l1036 1501h387l234 -1501h-414l-39 281h-588l-186 -281h-430zM684 596h346l-57 440zM723 1841l371 117l143 -342h-264z" />
<glyph unicode="&#xc1;" horiz-adv-x="1667" d="M-139 0l1036 1501h387l234 -1501h-414l-39 281h-588l-186 -281h-430zM684 596h346l-57 440zM965 1616l329 342l359 -117l-371 -225h-317z" />
<glyph unicode="&#xc2;" horiz-adv-x="1667" d="M-139 0l1036 1501h387l234 -1501h-414l-39 281h-588l-186 -281h-430zM664 1610l350 317h348l180 -317h-252l-137 114l-199 -114h-290zM684 596h346l-57 440z" />
<glyph unicode="&#xc3;" horiz-adv-x="1667" d="M-139 0l1036 1501h387l234 -1501h-414l-39 281h-588l-186 -281h-430zM674 1657q64 160 135 233.5t176 73.5q78 0 207 -47q101 -37 127 -37q43 0 71.5 23t59.5 77l190 -57q-62 -160 -133 -233.5t-176 -73.5q-78 0 -207 47q-101 37 -127 37q-43 0 -71.5 -23t-61.5 -78z M684 596h346l-57 440z" />
<glyph unicode="&#xc4;" horiz-adv-x="1667" d="M-139 0l1036 1501h387l234 -1501h-414l-39 281h-588l-186 -281h-430zM684 596h346l-57 440zM719 1616l80 291h342l-80 -291h-342zM1188 1616l80 291h344l-80 -291h-344z" />
<glyph unicode="&#xc5;" horiz-adv-x="1667" d="M-139 0l987 1427q-35 53 -35 117q0 122 92 208.5t236 86.5q114 0 190 -66t76 -161q0 -64 -28.5 -121.5t-78.5 -99.5l218 -1391h-414l-39 281h-588l-186 -281h-430zM684 596h346l-57 440zM958 1559q0 -52 37 -84.5t97 -32.5q77 0 123.5 47.5t46.5 105.5q0 53 -37 86 t-97 33q-77 0 -123.5 -48t-46.5 -107z" />
<glyph unicode="&#xc6;" horiz-adv-x="2310" d="M-145 0l1179 1491h1405l-90 -338h-743l-66 -244h666l-86 -317h-664l-70 -254h754l-90 -338h-1141l76 281h-481l-219 -281h-430zM748 596h323l152 573h-31z" />
<glyph unicode="&#xc7;" horiz-adv-x="1566" d="M125 623q0 173 69 336.5t199 293.5q125 125 294 196t366 71q219 0 373.5 -97t228.5 -268l-340 -192q-52 97 -127.5 146.5t-186.5 49.5q-174 0 -307 -133q-73 -73 -114 -171.5t-41 -205.5q0 -145 87.5 -232t225.5 -87q93 0 169 37.5t157 113.5l264 -241 q-118 -127 -263.5 -197.5t-338.5 -71.5h-2l-213 -340l-283 131l240 244q-211 63 -334 224.5t-123 392.5z" />
<glyph unicode="&#xc8;" horiz-adv-x="1443" d="M-4 0l399 1491h1178l-92 -338h-785l-65 -244h706l-84 -317h-708l-68 -254h797l-90 -338h-1188zM608 1821l371 116l143 -342h-264z" />
<glyph unicode="&#xc9;" horiz-adv-x="1443" d="M-4 0l399 1491h1178l-92 -338h-785l-65 -244h706l-84 -317h-708l-68 -254h797l-90 -338h-1188zM848 1595l330 342l358 -116l-371 -226h-317z" />
<glyph unicode="&#xca;" horiz-adv-x="1443" d="M-4 0l399 1491h1178l-92 -338h-785l-65 -244h706l-84 -317h-708l-68 -254h797l-90 -338h-1188zM551 1595l350 318h348l181 -318h-252l-138 115l-198 -115h-291z" />
<glyph unicode="&#xcb;" horiz-adv-x="1443" d="M-4 0l399 1491h1178l-92 -338h-785l-65 -244h706l-84 -317h-708l-68 -254h797l-90 -338h-1188zM604 1595l80 291h342l-80 -291h-342zM1073 1595l80 291h344l-80 -291h-344z" />
<glyph unicode="&#xcc;" horiz-adv-x="716" d="M6 0l402 1491h395l-400 -1491h-397zM229 1821l371 116l143 -342h-264z" />
<glyph unicode="&#xcd;" horiz-adv-x="716" d="M6 0l402 1491h395l-400 -1491h-397zM469 1595l330 342l358 -116l-371 -226h-317z" />
<glyph unicode="&#xce;" horiz-adv-x="716" d="M6 0l402 1491h395l-400 -1491h-397zM172 1595l350 318h348l181 -318h-252l-137 115l-199 -115h-291z" />
<glyph unicode="&#xcf;" horiz-adv-x="716" d="M6 0l402 1491h395l-400 -1491h-397zM225 1595l80 291h342l-80 -291h-342zM694 1595l80 291h344l-80 -291h-344z" />
<glyph unicode="&#xd0;" horiz-adv-x="1726" d="M68 616l71 269h178l164 606h463q394 0 584 -193q162 -162 162 -436q0 -168 -62 -318t-182 -270q-277 -274 -782 -274h-582l164 616h-178zM559 342h150q138 0 255.5 42t196.5 120q64 65 99.5 152t35.5 182q0 133 -77 213q-101 98 -310 98h-133l-71 -268h274l-72 -263h-274 z" />
<glyph unicode="&#xd1;" horiz-adv-x="1685" d="M-4 0l399 1491h369l397 -854l230 854h391l-400 -1491h-346l-411 883l-238 -883h-391zM666 1636q64 160 135 234t176 74q76 0 207 -48q98 -36 127 -36q43 0 71.5 23t59.5 77l190 -57q-62 -160 -133 -234t-176 -74q-78 0 -207 47q-101 37 -127 37q-44 0 -72 -23t-61 -77z " />
<glyph unicode="&#xd2;" d="M129 639q0 173 68.5 335.5t191.5 285.5q122 122 282.5 190t346.5 68q155 0 287.5 -51t223.5 -140t142 -212t51 -263q0 -173 -68.5 -335.5t-191.5 -285.5q-122 -122 -282 -190t-346 -68q-155 0 -287.5 51t-223.5 140t-142.5 212t-51.5 263zM532 670q0 -152 89 -246 t249 -94q167 0 295 125q72 72 113 170.5t41 195.5q0 152 -89 246t-249 94q-169 0 -297 -125q-70 -72 -111 -170.5t-41 -195.5zM741 1841l371 117l143 -342h-264z" />
<glyph unicode="&#xd3;" d="M129 639q0 173 68.5 335.5t191.5 285.5q122 122 282.5 190t346.5 68q155 0 287.5 -51t223.5 -140t142 -212t51 -263q0 -173 -68.5 -335.5t-191.5 -285.5q-122 -122 -282 -190t-346 -68q-155 0 -287.5 51t-223.5 140t-142.5 212t-51.5 263zM532 670q0 -152 89 -246 t249 -94q167 0 295 125q72 72 113 170.5t41 195.5q0 152 -89 246t-249 94q-169 0 -297 -125q-70 -72 -111 -170.5t-41 -195.5zM963 1616l329 342l359 -117l-371 -225h-317z" />
<glyph unicode="&#xd4;" d="M129 639q0 173 68.5 335.5t191.5 285.5q122 122 282.5 190t346.5 68q155 0 287.5 -51t223.5 -140t142 -212t51 -263q0 -173 -68.5 -335.5t-191.5 -285.5q-122 -122 -282 -190t-346 -68q-155 0 -287.5 51t-223.5 140t-142.5 212t-51.5 263zM532 670q0 -152 89 -246 t249 -94q167 0 295 125q72 72 113 170.5t41 195.5q0 152 -89 246t-249 94q-169 0 -297 -125q-70 -72 -111 -170.5t-41 -195.5zM684 1616l350 317h348l181 -317h-252l-137 115l-199 -115h-291z" />
<glyph unicode="&#xd5;" d="M129 639q0 173 68.5 335.5t191.5 285.5q122 122 282.5 190t346.5 68q155 0 287.5 -51t223.5 -140t142 -212t51 -263q0 -173 -68.5 -335.5t-191.5 -285.5q-122 -122 -282 -190t-346 -68q-155 0 -287.5 51t-223.5 140t-142.5 212t-51.5 263zM532 670q0 -152 89 -246 t249 -94q167 0 295 125q72 72 113 170.5t41 195.5q0 152 -89 246t-249 94q-169 0 -297 -125q-70 -72 -111 -170.5t-41 -195.5zM692 1657q64 160 135.5 233.5t176.5 73.5q77 0 206 -47q101 -37 127 -37q43 0 71.5 23t59.5 77l191 -57q-62 -160 -133 -233.5t-176 -73.5 q-78 0 -207 47q-101 37 -127 37q-43 0 -71.5 -23t-61.5 -78z" />
<glyph unicode="&#xd6;" d="M129 639q0 173 68.5 335.5t191.5 285.5q122 122 282.5 190t346.5 68q155 0 287.5 -51t223.5 -140t142 -212t51 -263q0 -173 -68.5 -335.5t-191.5 -285.5q-122 -122 -282 -190t-346 -68q-155 0 -287.5 51t-223.5 140t-142.5 212t-51.5 263zM532 670q0 -152 89 -246 t249 -94q167 0 295 125q72 72 113 170.5t41 195.5q0 152 -89 246t-249 94q-169 0 -297 -125q-70 -72 -111 -170.5t-41 -195.5zM735 1616l80 291h342l-80 -291h-342zM1204 1616l80 291h344l-80 -291h-344z" />
<glyph unicode="&#xd7;" horiz-adv-x="1384" d="M104 453l408 315l-236 315l285 222l225 -324l406 326l194 -260l-409 -316l237 -313l-284 -221l-228 321l-403 -323z" />
<glyph unicode="&#xd8;" d="M-76 -10l312 280q-107 159 -107 369q0 173 68.5 335.5t191.5 285.5q122 122 282.5 190t346.5 68q262 0 455 -146l141 129h313l-311 -282q106 -162 106 -367q0 -173 -68.5 -335.5t-191.5 -285.5q-122 -122 -282 -190t-346 -68q-265 0 -455 144l-141 -127h-314zM520 668 q0 -72 21 -133l643 585q-87 54 -203 54q-173 0 -303 -130q-73 -73 -115.5 -174.5t-42.5 -201.5zM668 371q82 -54 200 -54q178 0 303 132q74 71 116 172t42 202q0 72 -20 131z" />
<glyph unicode="&#xd9;" horiz-adv-x="1640" d="M145 489q0 115 35 240l205 762h399l-213 -793q-20 -78 -20 -143q0 -104 61.5 -163.5t175.5 -59.5q127 0 209 82q83 81 131 252l222 825h399l-238 -885q-81 -294 -231 -444q-189 -189 -541 -189q-281 0 -437.5 136.5t-156.5 379.5zM686 1821l371 116l143 -342h-264z" />
<glyph unicode="&#xda;" horiz-adv-x="1640" d="M145 489q0 115 35 240l205 762h399l-213 -793q-20 -78 -20 -143q0 -104 61.5 -163.5t175.5 -59.5q127 0 209 82q83 81 131 252l222 825h399l-238 -885q-81 -294 -231 -444q-189 -189 -541 -189q-281 0 -437.5 136.5t-156.5 379.5zM926 1595l329 342l359 -116l-371 -226 h-317z" />
<glyph unicode="&#xdb;" horiz-adv-x="1640" d="M145 489q0 115 35 240l205 762h399l-213 -793q-20 -78 -20 -143q0 -104 61.5 -163.5t175.5 -59.5q127 0 209 82q83 81 131 252l222 825h399l-238 -885q-81 -294 -231 -444q-189 -189 -541 -189q-281 0 -437.5 136.5t-156.5 379.5zM629 1595l350 318h348l180 -318h-252 l-137 115l-198 -115h-291z" />
<glyph unicode="&#xdc;" horiz-adv-x="1640" d="M145 489q0 115 35 240l205 762h399l-213 -793q-20 -78 -20 -143q0 -104 61.5 -163.5t175.5 -59.5q127 0 209 82q83 81 131 252l222 825h399l-238 -885q-81 -294 -231 -444q-189 -189 -541 -189q-281 0 -437.5 136.5t-156.5 379.5zM682 1595l80 291h342l-80 -291h-342z M1151 1595l80 291h344l-80 -291h-344z" />
<glyph unicode="&#xdd;" horiz-adv-x="1449" d="M207 1491h428l153 -569l461 569h475l-829 -954l-145 -537h-396l156 580zM807 1595l330 342l358 -116l-371 -226h-317z" />
<glyph unicode="&#xde;" horiz-adv-x="1476" d="M-4 0l399 1491h398l-56 -213h92q178 0 297.5 -37.5t200.5 -118.5q117 -117 117 -301q0 -235 -156 -391q-99 -99 -246 -151t-329 -52h-260l-62 -227h-395zM539 547h170q182 0 270 88q59 59 59 151q0 66 -43 109q-54 57 -182 57h-166z" />
<glyph unicode="&#xdf;" horiz-adv-x="1378" d="M-23 0l277 1030q69 255 199 385q156 156 419 156q225 0 358.5 -114.5t133.5 -299.5q0 -155 -86.5 -264t-247.5 -156q103 -39 164 -112t61 -176q0 -101 -45 -186.5t-134 -149.5t-235.5 -96t-334.5 -21l76 283q158 -1 232.5 56.5t74.5 145.5q0 63 -51 105.5t-160 52.5 l57 215q136 28 201 93.5t65 156.5q0 68 -41 106.5t-102 38.5q-160 0 -223 -235l-270 -1014h-388z" />
<glyph unicode="&#xe0;" horiz-adv-x="1288" d="M14 289q0 163 107 270q140 137 397 137q146 0 299 -45l4 13q10 38 10 75q0 125 -200 125q-167 0 -309 -57l-56 285q193 73 445 73q251 0 377 -94t126 -268q0 -83 -24 -168l-168 -635h-381l33 127q-153 -150 -336 -150q-143 0 -233.5 86t-90.5 226zM395 330 q0 -50 33 -80.5t88 -30.5q82 0 152.5 62t95.5 151l10 39q-85 29 -164 29q-114 0 -172 -58q-43 -46 -43 -112zM453 1530l362 121l121 -389h-254z" />
<glyph unicode="&#xe1;" horiz-adv-x="1288" d="M14 289q0 163 107 270q140 137 397 137q146 0 299 -45l4 13q10 38 10 75q0 125 -200 125q-167 0 -309 -57l-56 285q193 73 445 73q251 0 377 -94t126 -268q0 -83 -24 -168l-168 -635h-381l33 127q-153 -150 -336 -150q-143 0 -233.5 86t-90.5 226zM395 330 q0 -50 33 -80.5t88 -30.5q82 0 152.5 62t95.5 151l10 39q-85 29 -164 29q-114 0 -172 -58q-43 -46 -43 -112zM668 1262l331 389l351 -121l-379 -268h-303z" />
<glyph unicode="&#xe2;" horiz-adv-x="1288" d="M14 289q0 163 107 270q140 137 397 137q146 0 299 -45l4 13q10 38 10 75q0 125 -200 125q-167 0 -309 -57l-56 285q193 73 445 73q251 0 377 -94t126 -268q0 -83 -24 -168l-168 -635h-381l33 127q-153 -150 -336 -150q-143 0 -233.5 86t-90.5 226zM373 1262l362 346h324 l178 -346h-240l-141 131l-213 -131h-270zM395 330q0 -50 33 -80.5t88 -30.5q82 0 152.5 62t95.5 151l10 39q-85 29 -164 29q-114 0 -172 -58q-43 -46 -43 -112z" />
<glyph unicode="&#xe3;" horiz-adv-x="1288" d="M14 289q0 163 107 270q140 137 397 137q146 0 299 -45l4 13q10 38 10 75q0 125 -200 125q-167 0 -309 -57l-56 285q193 73 445 73q251 0 377 -94t126 -268q0 -83 -24 -168l-168 -635h-381l33 127q-153 -150 -336 -150q-143 0 -233.5 86t-90.5 226zM383 1303 q63 161 132 233t175 72q78 0 193 -45q91 -37 123 -37q42 0 69 22.5t60 77.5l190 -59q-64 -161 -133.5 -233t-175.5 -72q-76 0 -191 45q-92 36 -123 36q-43 0 -70.5 -22.5t-58.5 -77.5zM395 330q0 -50 33 -80.5t88 -30.5q82 0 152.5 62t95.5 151l10 39q-85 29 -164 29 q-114 0 -172 -58q-43 -46 -43 -112z" />
<glyph unicode="&#xe4;" horiz-adv-x="1288" d="M14 289q0 163 107 270q140 137 397 137q146 0 299 -45l4 13q10 38 10 75q0 125 -200 125q-167 0 -309 -57l-56 285q193 73 445 73q251 0 377 -94t126 -268q0 -83 -24 -168l-168 -635h-381l33 127q-153 -150 -336 -150q-143 0 -233.5 86t-90.5 226zM395 330 q0 -50 33 -80.5t88 -30.5q82 0 152.5 62t95.5 151l10 39q-85 29 -164 29q-114 0 -172 -58q-43 -46 -43 -112zM416 1262l82 299h344l-82 -299h-344zM881 1262l82 299h344l-82 -299h-344z" />
<glyph unicode="&#xe5;" horiz-adv-x="1288" d="M14 289q0 163 107 270q140 137 397 137q146 0 299 -45l4 13q10 38 10 75q0 125 -200 125q-167 0 -309 -57l-56 285q193 73 445 73q251 0 377 -94t126 -268q0 -83 -24 -168l-168 -635h-381l33 127q-153 -150 -336 -150q-143 0 -233.5 86t-90.5 226zM395 330 q0 -50 33 -80.5t88 -30.5q82 0 152.5 62t95.5 151l10 39q-85 29 -164 29q-114 0 -172 -58q-43 -46 -43 -112zM616 1495q0 122 87.5 210.5t214.5 88.5q113 0 182 -65.5t69 -165.5q0 -122 -87 -211.5t-214 -89.5q-113 0 -182.5 66.5t-69.5 166.5zM756 1505q0 -55 33 -89 t85 -34q66 0 111 51t45 119q0 55 -33.5 89t-85.5 34q-66 0 -110.5 -51t-44.5 -119z" />
<glyph unicode="&#xe6;" horiz-adv-x="2009" d="M14 289q0 163 107 270q140 137 397 137q146 0 299 -45l4 13q10 38 10 75q0 125 -200 125q-167 0 -309 -57l-56 285q193 73 445 73q268 0 374 -143q180 152 400 152q115 0 206 -38t147.5 -103t86 -149t29.5 -179q0 -116 -47 -242h-770v-2q6 -90 64 -143t163 -52 q117 0 246 92l178 -219q-188 -166 -469 -166q-145 0 -257 54t-179 157q-210 -207 -500 -207q-171 0 -270 84.5t-99 227.5zM395 330q0 -51 37.5 -81t106.5 -30q64 0 139 32t135 89q-16 56 -16 121q-100 39 -187 39q-114 0 -172 -58q-43 -46 -43 -112zM1165 670h430 q11 33 11 63q0 65 -42.5 108.5t-121.5 43.5q-111 0 -193 -82q-54 -54 -84 -133z" />
<glyph unicode="&#xe7;" horiz-adv-x="1216" d="M76 481q0 141 53 267t150 223q96 96 221.5 149.5t265.5 53.5q186 0 308 -83.5t175 -220.5l-301 -165q-35 72 -83 108.5t-126 36.5q-98 0 -178 -80q-51 -51 -80.5 -123.5t-29.5 -148.5q0 -92 53.5 -147.5t134.5 -55.5q62 0 114.5 25.5t110.5 80.5l230 -213 q-90 -102 -199 -156.5t-258 -58.5h-2l-213 -342l-283 131l246 250q-143 57 -226 179t-83 290z" />
<glyph unicode="&#xe8;" horiz-adv-x="1304" d="M76 481q0 137 54.5 268.5t152.5 227.5q197 197 483 197q120 0 214 -38t152 -103.5t87.5 -148.5t29.5 -179q0 -124 -47 -242h-770v-2q6 -90 64 -143t163 -52q117 0 246 92l178 -219q-195 -166 -462 -166q-252 0 -398.5 137.5t-146.5 370.5zM461 670h430q10 30 10 63 q0 66 -41.5 109t-122.5 43q-110 0 -192 -82q-54 -54 -84 -133zM479 1530l363 121l121 -389h-254z" />
<glyph unicode="&#xe9;" horiz-adv-x="1304" d="M76 481q0 137 54.5 268.5t152.5 227.5q197 197 483 197q120 0 214 -38t152 -103.5t87.5 -148.5t29.5 -179q0 -124 -47 -242h-770v-2q6 -90 64 -143t163 -52q117 0 246 92l178 -219q-195 -166 -462 -166q-252 0 -398.5 137.5t-146.5 370.5zM461 670h430q10 30 10 63 q0 66 -41.5 109t-122.5 43q-110 0 -192 -82q-54 -54 -84 -133zM692 1262l332 389l350 -121l-379 -268h-303z" />
<glyph unicode="&#xea;" horiz-adv-x="1304" d="M76 481q0 137 54.5 268.5t152.5 227.5q197 197 483 197q120 0 214 -38t152 -103.5t87.5 -148.5t29.5 -179q0 -124 -47 -242h-770v-2q6 -90 64 -143t163 -52q117 0 246 92l178 -219q-195 -166 -462 -166q-252 0 -398.5 137.5t-146.5 370.5zM399 1262l363 346h323l179 -346 h-240l-141 131l-213 -131h-271zM461 670h430q10 30 10 63q0 66 -41.5 109t-122.5 43q-110 0 -192 -82q-54 -54 -84 -133z" />
<glyph unicode="&#xeb;" horiz-adv-x="1304" d="M76 481q0 137 54.5 268.5t152.5 227.5q197 197 483 197q120 0 214 -38t152 -103.5t87.5 -148.5t29.5 -179q0 -124 -47 -242h-770v-2q6 -90 64 -143t163 -52q117 0 246 92l178 -219q-195 -166 -462 -166q-252 0 -398.5 137.5t-146.5 370.5zM442 1262l82 299h344l-82 -299 h-344zM461 670h430q10 30 10 63q0 66 -41.5 109t-122.5 43q-110 0 -192 -82q-54 -54 -84 -133zM907 1262l82 299h344l-82 -299h-344z" />
<glyph unicode="&#xec;" horiz-adv-x="663" d="M-16 0l307 1151h389l-309 -1151h-387zM145 1524l363 121l121 -390h-254z" />
<glyph unicode="&#xed;" horiz-adv-x="663" d="M-16 0l307 1151h389l-309 -1151h-387zM358 1255l332 390l350 -121l-378 -269h-304z" />
<glyph unicode="&#xee;" horiz-adv-x="663" d="M-16 0l307 1151h389l-309 -1151h-387zM68 1255l362 347h324l178 -347h-240l-141 131l-213 -131h-270z" />
<glyph unicode="&#xef;" horiz-adv-x="663" d="M-16 0l307 1151h389l-309 -1151h-387zM109 1255l81 299h345l-82 -299h-344zM573 1255l82 299h344l-81 -299h-345z" />
<glyph unicode="&#xf0;" horiz-adv-x="1406" d="M80 500q0 135 51 260.5t143 216.5q167 170 394 170q171 0 288 -123q-42 110 -143 248l-264 -66l-51 170l190 47q-86 90 -131 131h451l36 -43l240 60l53 -168l-178 -45q174 -271 174 -570q0 -184 -61 -345t-174 -275q-91 -91 -211 -143t-258 -52q-254 0 -401.5 144.5 t-147.5 382.5zM449 516q0 -101 54 -161t148 -60q105 0 185 80q48 48 76 116t28 140q0 99 -56 159t-149 60q-107 0 -184 -80q-48 -46 -75 -113.5t-27 -140.5z" />
<glyph unicode="&#xf1;" horiz-adv-x="1359" d="M-27 0l308 1151h389l-35 -131q146 154 323 154q156 0 245 -92t89 -251q0 -82 -32 -206l-166 -625h-389l163 608q15 58 15 97q0 60 -34.5 92t-100.5 32q-165 0 -222 -213l-166 -616h-387zM420 1303q63 161 132 233t175 72q78 0 193 -45q91 -37 122 -37q42 0 69 22.5 t60 77.5l191 -59q-64 -161 -133.5 -233t-175.5 -72q-76 0 -191 45q-92 36 -123 36q-43 0 -70.5 -22.5t-58.5 -77.5z" />
<glyph unicode="&#xf2;" horiz-adv-x="1394" d="M80 508q0 130 52.5 252t146.5 215q94 94 216 146.5t259 52.5q257 0 410 -150.5t153 -382.5q0 -130 -52.5 -252t-146.5 -217q-93 -93 -216 -146t-261 -53q-257 0 -409 150.5t-152 384.5zM453 520q0 -103 57 -163t152 -60q100 0 178 78q49 49 76.5 117.5t27.5 134.5 q0 104 -58 163.5t-153 59.5q-100 0 -176 -76q-49 -48 -76.5 -117.5t-27.5 -136.5zM510 1530l362 121l121 -389h-254z" />
<glyph unicode="&#xf3;" horiz-adv-x="1394" d="M80 508q0 130 52.5 252t146.5 215q94 94 216 146.5t259 52.5q257 0 410 -150.5t153 -382.5q0 -130 -52.5 -252t-146.5 -217q-93 -93 -216 -146t-261 -53q-257 0 -409 150.5t-152 384.5zM453 520q0 -103 57 -163t152 -60q100 0 178 78q49 49 76.5 117.5t27.5 134.5 q0 104 -58 163.5t-153 59.5q-100 0 -176 -76q-49 -48 -76.5 -117.5t-27.5 -136.5zM705 1262l331 389l350 -121l-378 -268h-303z" />
<glyph unicode="&#xf4;" horiz-adv-x="1394" d="M80 508q0 130 52.5 252t146.5 215q94 94 216 146.5t259 52.5q257 0 410 -150.5t153 -382.5q0 -130 -52.5 -252t-146.5 -217q-93 -93 -216 -146t-261 -53q-257 0 -409 150.5t-152 384.5zM430 1262l363 346h323l178 -346h-239l-142 131l-213 -131h-270zM453 520 q0 -103 57 -163t152 -60q100 0 178 78q49 49 76.5 117.5t27.5 134.5q0 104 -58 163.5t-153 59.5q-100 0 -176 -76q-49 -48 -76.5 -117.5t-27.5 -136.5z" />
<glyph unicode="&#xf5;" horiz-adv-x="1394" d="M80 508q0 130 52.5 252t146.5 215q94 94 216 146.5t259 52.5q257 0 410 -150.5t153 -382.5q0 -130 -52.5 -252t-146.5 -217q-93 -93 -216 -146t-261 -53q-257 0 -409 150.5t-152 384.5zM440 1303q63 160 132.5 232.5t175.5 72.5q77 0 192 -45q91 -37 123 -37 q42 0 69 22.5t60 77.5l190 -59q-64 -161 -133.5 -233t-175.5 -72q-75 0 -190 45q-92 36 -123 36q-43 0 -70.5 -22.5t-58.5 -77.5zM453 520q0 -103 57 -163t152 -60q100 0 178 78q49 49 76.5 117.5t27.5 134.5q0 104 -58 163.5t-153 59.5q-100 0 -176 -76 q-49 -48 -76.5 -117.5t-27.5 -136.5z" />
<glyph unicode="&#xf6;" horiz-adv-x="1394" d="M80 508q0 130 52.5 252t146.5 215q94 94 216 146.5t259 52.5q257 0 410 -150.5t153 -382.5q0 -130 -52.5 -252t-146.5 -217q-93 -93 -216 -146t-261 -53q-257 0 -409 150.5t-152 384.5zM453 520q0 -103 57 -163t152 -60q100 0 178 78q49 49 76.5 117.5t27.5 134.5 q0 104 -58 163.5t-153 59.5q-100 0 -176 -76q-49 -48 -76.5 -117.5t-27.5 -136.5zM473 1262l82 299h344l-82 -299h-344zM938 1262l82 299h344l-82 -299h-344z" />
<glyph unicode="&#xf7;" horiz-adv-x="1384" d="M141 594l84 313h1112l-86 -313h-1110zM385 115l88 336h371l-90 -336h-369zM635 1049l88 335h371l-90 -335h-369z" />
<glyph unicode="&#xf8;" horiz-adv-x="1394" d="M-109 -12l263 235q-74 121 -74 285q0 130 52.5 252t146.5 215q94 94 216 146.5t259 52.5q209 0 360 -109l107 96h282l-262 -235q76 -127 76 -285q0 -130 -52.5 -252t-146.5 -217q-93 -93 -216 -146t-261 -53q-213 0 -360 109l-105 -94h-285zM436 520q0 -23 4 -59l418 375 q-51 28 -119 28q-110 0 -194 -84q-50 -50 -79.5 -121t-29.5 -139zM537 311q54 -28 120 -28q106 0 193 84q52 52 80 122t28 140q0 32 -6 59z" />
<glyph unicode="&#xf9;" horiz-adv-x="1359" d="M68 317q0 81 32 209l168 625h387l-163 -608q-15 -58 -15 -97q0 -60 35 -92t102 -32q164 0 220 213l165 616h387l-307 -1151h-387l33 129q-150 -154 -324 -154q-155 0 -244 91.5t-89 250.5zM487 1524l363 121l121 -390h-254z" />
<glyph unicode="&#xfa;" horiz-adv-x="1359" d="M68 317q0 81 32 209l168 625h387l-163 -608q-15 -58 -15 -97q0 -60 35 -92t102 -32q164 0 220 213l165 616h387l-307 -1151h-387l33 129q-150 -154 -324 -154q-155 0 -244 91.5t-89 250.5zM702 1255l332 390l350 -121l-378 -269h-304z" />
<glyph unicode="&#xfb;" horiz-adv-x="1359" d="M68 317q0 81 32 209l168 625h387l-163 -608q-15 -58 -15 -97q0 -60 35 -92t102 -32q164 0 220 213l165 616h387l-307 -1151h-387l33 129q-150 -154 -324 -154q-155 0 -244 91.5t-89 250.5zM408 1255l362 347h324l178 -347h-240l-141 131l-213 -131h-270z" />
<glyph unicode="&#xfc;" horiz-adv-x="1359" d="M68 317q0 81 32 209l168 625h387l-163 -608q-15 -58 -15 -97q0 -60 35 -92t102 -32q164 0 220 213l165 616h387l-307 -1151h-387l33 129q-150 -154 -324 -154q-155 0 -244 91.5t-89 250.5zM451 1255l81 299h345l-82 -299h-344zM915 1255l82 299h344l-81 -299h-345z" />
<glyph unicode="&#xfd;" horiz-adv-x="1333" d="M-92 -264l180 282q74 -55 152 -55q59 0 106 47l-147 1141h393l49 -711l395 711h410l-711 -1151q-122 -191 -242.5 -269.5t-285.5 -78.5q-175 0 -299 84zM684 1255l332 390l350 -121l-379 -269h-303z" />
<glyph unicode="&#xfe;" horiz-adv-x="1454" d="M-117 -340l506 1894h387l-141 -526q149 146 326 146q180 0 297.5 -128t117.5 -348q0 -162 -56.5 -302.5t-156.5 -241.5q-86 -86 -191 -132.5t-218 -46.5q-229 0 -351 185l-133 -500h-387zM481 510q0 -95 58 -153t151 -58q109 0 191 82q102 105 102 262q0 96 -56 152.5 t-149 56.5q-108 0 -192 -84q-105 -105 -105 -258z" />
<glyph unicode="&#xff;" horiz-adv-x="1333" d="M-92 -264l180 282q74 -55 152 -55q59 0 106 47l-147 1141h393l49 -711l395 711h410l-711 -1151q-122 -191 -242.5 -269.5t-285.5 -78.5q-175 0 -299 84zM434 1255l82 299h344l-82 -299h-344zM899 1255l82 299h344l-82 -299h-344z" />
<glyph unicode="&#x152;" horiz-adv-x="2316" d="M127 629q0 168 62 318t182 270q277 274 782 274h1292l-92 -338h-741l-66 -244h664l-84 -317h-666l-67 -254h753l-90 -338h-1184q-393 0 -589 199q-156 153 -156 430zM535 657q0 -135 73 -208q97 -97 303 -97h93l213 787h-109q-136 0 -250 -40.5t-190 -117.5 q-133 -133 -133 -324z" />
<glyph unicode="&#x153;" horiz-adv-x="2164" d="M80 508q0 130 52.5 252t146.5 215q94 94 216 146.5t259 52.5q143 0 250 -52t172 -145q187 197 456 197q118 0 211 -38t150.5 -103t87.5 -148.5t30 -179.5q0 -116 -47 -242h-770v-2q6 -90 64.5 -143t163.5 -52q116 0 245 92l179 -219q-188 -166 -469 -166 q-133 0 -236.5 49t-165.5 138q-85 -88 -196 -137.5t-238 -49.5q-257 0 -409 150.5t-152 384.5zM453 520q0 -103 57 -163t152 -60q100 0 178 78q49 49 76.5 117.5t27.5 134.5q0 104 -58 163.5t-153 59.5q-100 0 -176 -76q-49 -48 -76.5 -117.5t-27.5 -136.5zM1323 670h430 q10 30 10 63q0 65 -42.5 108.5t-121.5 43.5q-110 0 -192 -82q-54 -54 -84 -133z" />
<glyph unicode="&#x178;" horiz-adv-x="1449" d="M207 1491h428l153 -569l461 569h475l-829 -954l-145 -537h-396l156 580zM563 1595l80 291h342l-80 -291h-342zM1032 1595l80 291h344l-80 -291h-344z" />
<glyph unicode="&#x2c6;" horiz-adv-x="1085" d="M293 1255l362 347h324l178 -347h-239l-142 131l-213 -131h-270z" />
<glyph unicode="&#x2dc;" horiz-adv-x="1085" d="M297 1296q63 161 132 233.5t175 72.5q75 0 193 -46q88 -36 123 -36q42 0 69 22.5t60 77.5l190 -59q-64 -161 -133.5 -233.5t-175.5 -72.5q-76 0 -191 45q-94 37 -123 37q-43 0 -70.5 -22.5t-58.5 -77.5z" />
<glyph unicode="&#x2000;" horiz-adv-x="990" />
<glyph unicode="&#x2001;" horiz-adv-x="1980" />
<glyph unicode="&#x2002;" horiz-adv-x="990" />
<glyph unicode="&#x2003;" horiz-adv-x="1980" />
<glyph unicode="&#x2004;" horiz-adv-x="660" />
<glyph unicode="&#x2005;" horiz-adv-x="495" />
<glyph unicode="&#x2006;" horiz-adv-x="330" />
<glyph unicode="&#x2007;" horiz-adv-x="330" />
<glyph unicode="&#x2008;" horiz-adv-x="247" />
<glyph unicode="&#x2009;" horiz-adv-x="396" />
<glyph unicode="&#x200a;" horiz-adv-x="110" />
<glyph unicode="&#x2010;" horiz-adv-x="907" d="M86 492l92 346h690l-92 -346h-690z" />
<glyph unicode="&#x2011;" horiz-adv-x="907" d="M86 492l92 346h690l-92 -346h-690z" />
<glyph unicode="&#x2012;" horiz-adv-x="907" d="M86 492l92 346h690l-92 -346h-690z" />
<glyph unicode="&#x2013;" horiz-adv-x="1142" d="M86 496l90 338h930l-92 -338h-928z" />
<glyph unicode="&#x2014;" horiz-adv-x="1931" d="M86 496l90 338h1716l-90 -338h-1716z" />
<glyph unicode="&#x2018;" horiz-adv-x="671" d="M158 750l92 346q55 207 176 303.5t346 105.5l19 -151q-123 -12 -190.5 -62.5t-88.5 -140.5h158l-109 -401h-403z" />
<glyph unicode="&#x2019;" horiz-adv-x="671" d="M143 889q238 23 277 201h-156l107 401h405l-92 -344q-56 -209 -177 -306t-347 -104z" />
<glyph unicode="&#x201a;" horiz-adv-x="671" d="M-141 -203q123 12 190 62.5t86 140.5h-155l106 401h406l-93 -346q-56 -207 -177 -303.5t-347 -105.5z" />
<glyph unicode="&#x201c;" horiz-adv-x="1228" d="M160 748l92 346q55 208 174 304t344 105l18 -151q-123 -12 -188 -62.5t-86 -140.5h154l-109 -401h-399zM721 748l92 346q55 208 174 304t344 105l19 -151q-123 -12 -188.5 -62.5t-84.5 -140.5h152l-109 -401h-399z" />
<glyph unicode="&#x201d;" horiz-adv-x="1228" d="M143 889q124 12 190 62t85 139h-154l109 401h401l-92 -344q-56 -209 -176 -306t-344 -104zM705 889q124 12 189.5 62t84.5 139h-152l107 401h401l-92 -344q-56 -209 -176 -306t-344 -104z" />
<glyph unicode="&#x201e;" horiz-adv-x="1228" d="M-141 -203q123 12 188 62.5t84 140.5h-151l106 401h401l-92 -346q-56 -208 -175.5 -304t-344.5 -105zM420 -203q123 12 188 62.5t84 140.5h-151l108 401h400l-93 -346q-56 -207 -175 -303.5t-343 -105.5z" />
<glyph unicode="&#x2022;" horiz-adv-x="1087" d="M256 670q0 91 36.5 179t100.5 152q109 109 252 109q130 0 204.5 -77t74.5 -202q0 -90 -36.5 -178t-99.5 -153q-112 -109 -253 -109q-130 0 -204.5 77t-74.5 202z" />
<glyph unicode="&#x2026;" horiz-adv-x="1855" d="M-20 0l104 393h399l-106 -393h-397zM575 0l105 393h399l-106 -393h-398zM1171 0l105 393h399l-106 -393h-398z" />
<glyph unicode="&#x202f;" horiz-adv-x="396" />
<glyph unicode="&#x2039;" horiz-adv-x="788" d="M78 524l22 86l500 461l188 -186l-337 -359l145 -346l-266 -119z" />
<glyph unicode="&#x203a;" horiz-adv-x="788" d="M-2 246l336 358l-144 346l265 119l252 -465l-23 -84l-500 -461z" />
<glyph unicode="&#x205f;" horiz-adv-x="495" />
<glyph unicode="&#x20ac;" horiz-adv-x="1480" d="M53 473l60 219h145q2 12 23 115h-138l58 219h143q65 160 184 279q212 215 527 215q387 0 528 -320l-299 -188q-45 85 -104 125.5t-154 40.5q-131 0 -221 -93q-34 -34 -53 -61h372l-57 -215h-395q-18 -63 -27 -119h391l-57 -215h-340q18 -81 73.5 -121.5t137.5 -40.5 q80 0 143 31t131 100l236 -239q-214 -234 -524 -234q-243 0 -402 136t-184 366h-197z" />
<glyph unicode="&#x2122;" horiz-adv-x="1503" d="M231 1337l41 154h568l-43 -154h-195l-135 -501h-176l135 501h-195zM774 836l176 655h176l91 -258l229 258h192l-176 -655h-172l107 395l-240 -266h-8l-98 266l-107 -395h-170z" />
<glyph unicode="&#x25fc;" horiz-adv-x="1146" d="M0 0v1147h1147v-1147h-1147z" />
<glyph unicode="&#xfb01;" horiz-adv-x="1550" d="M43 0l223 836h-135l86 315h133l8 27q44 176 138 270q124 121 350 121q139 0 252 -35l-76 -281q-77 25 -137 25q-119 0 -148 -111l-6 -22h262l-82 -309h-258l-223 -836h-387zM870 0l308 1151h389l-310 -1151h-387zM1200 1260l80 294h406l-82 -294h-404z" />
<glyph unicode="&#xfb02;" horiz-adv-x="1550" d="M43 0l223 836h-135l86 315h133l8 27q44 176 138 270q124 121 350 121q139 0 252 -35l-76 -281q-77 25 -137 25q-119 0 -148 -111l-6 -22h262l-82 -309h-258l-223 -836h-387zM870 0l418 1554h387l-418 -1554h-387z" />
<glyph unicode="&#xfb03;" horiz-adv-x="2435" d="M43 0l223 836h-135l86 315h133l8 27q44 176 138 270q124 121 350 121q139 0 252 -35l-76 -281q-77 25 -137 25q-119 0 -148 -111l-6 -22h262l-82 -309h-258l-223 -836h-387zM930 0l223 836h-135l86 315h133l8 27q44 177 137 270q124 121 351 121q139 0 252 -35l-76 -281 q-77 25 -137 25q-119 0 -148 -111l-6 -22h262l-82 -309h-258l-223 -836h-387zM1757 0l307 1151h390l-310 -1151h-387zM2087 1260l80 294h405l-82 -294h-403z" />
<glyph unicode="&#xfb04;" horiz-adv-x="2435" d="M43 0l223 836h-135l86 315h133l8 27q44 176 138 270q124 121 350 121q139 0 252 -35l-76 -281q-77 25 -137 25q-119 0 -148 -111l-6 -22h262l-82 -309h-258l-223 -836h-387zM930 0l223 836h-135l86 315h133l8 27q44 177 137 270q124 121 351 121q139 0 252 -35l-76 -281 q-77 25 -137 25q-119 0 -148 -111l-6 -22h262l-82 -309h-258l-223 -836h-387zM1757 0l418 1554h387l-418 -1554h-387z" />
</font>
</defs>
</svg>
